<svg width="200" height="64" viewBox="0 0 200 64" fill="none" xmlns="http://www.w3.org/2000/svg">
<path d="M94.696 22.4C96.3947 22.4 97.8693 22.68 99.12 23.24C100.389 23.8 101.36 24.6027 102.032 25.648C102.704 26.6933 103.04 27.9347 103.04 29.372C103.04 30.7907 102.704 32.032 102.032 33.096C101.36 34.1413 100.389 34.944 99.12 35.504C97.8693 36.064 96.3947 36.344 94.696 36.344H90.272V42H86.632V22.4H94.696ZM94.528 33.264C96.1147 33.264 97.3187 32.928 98.14 32.256C98.9613 31.584 99.372 30.6227 99.372 29.372C99.372 28.1213 98.9613 27.16 98.14 26.488C97.3187 25.816 96.1147 25.48 94.528 25.48H90.272V33.264H94.528ZM120.34 34.608C120.34 34.8507 120.322 35.196 120.284 35.644H108.552C108.758 36.7453 109.29 37.6227 110.148 38.276C111.026 38.9107 112.108 39.228 113.396 39.228C115.039 39.228 116.392 38.6867 117.456 37.604L119.332 39.76C118.66 40.5627 117.811 41.1693 116.784 41.58C115.758 41.9907 114.6 42.196 113.312 42.196C111.67 42.196 110.223 41.8693 108.972 41.216C107.722 40.5627 106.751 39.6573 106.06 38.5C105.388 37.324 105.052 35.9987 105.052 34.524C105.052 33.068 105.379 31.7613 106.032 30.604C106.704 29.428 107.628 28.5133 108.804 27.86C109.98 27.2067 111.306 26.88 112.78 26.88C114.236 26.88 115.534 27.2067 116.672 27.86C117.83 28.4947 118.726 29.4 119.36 30.576C120.014 31.7333 120.34 33.0773 120.34 34.608ZM112.78 29.68C111.66 29.68 110.708 30.016 109.924 30.688C109.159 31.3413 108.692 32.2187 108.524 33.32H117.008C116.859 32.2373 116.402 31.36 115.636 30.688C114.871 30.016 113.919 29.68 112.78 29.68ZM132.69 41.188C132.28 41.524 131.776 41.776 131.178 41.944C130.6 42.112 129.984 42.196 129.33 42.196C127.688 42.196 126.418 41.7667 125.522 40.908C124.626 40.0493 124.178 38.7987 124.178 37.156V29.96H121.714V27.16H124.178V23.744H127.678V27.16H131.682V29.96H127.678V37.072C127.678 37.8 127.856 38.36 128.21 38.752C128.565 39.1253 129.078 39.312 129.75 39.312C130.534 39.312 131.188 39.1067 131.71 38.696L132.69 41.188ZM144.977 42.28C142.999 42.28 141.207 41.8507 139.601 40.992C138.015 40.1147 136.764 38.9107 135.849 37.38C134.953 35.8493 134.505 34.1227 134.505 32.2C134.505 30.2773 134.963 28.5507 135.877 27.02C136.792 25.4893 138.043 24.2947 139.629 23.436C141.235 22.5587 143.027 22.12 145.005 22.12C146.611 22.12 148.076 22.4 149.401 22.96C150.727 23.52 151.847 24.332 152.761 25.396L150.409 27.608C148.991 26.0773 147.245 25.312 145.173 25.312C143.829 25.312 142.625 25.6107 141.561 26.208C140.497 26.7867 139.667 27.5987 139.069 28.644C138.472 29.6893 138.173 30.8747 138.173 32.2C138.173 33.5253 138.472 34.7107 139.069 35.756C139.667 36.8013 140.497 37.6227 141.561 38.22C142.625 38.7987 143.829 39.088 145.173 39.088C147.245 39.088 148.991 38.3133 150.409 36.764L152.761 39.004C151.847 40.068 150.717 40.88 149.373 41.44C148.048 42 146.583 42.28 144.977 42.28ZM161.488 26.88C163.691 26.88 165.371 27.412 166.528 28.476C167.704 29.5213 168.292 31.108 168.292 33.236V42H164.988V40.18C164.559 40.8333 163.943 41.3373 163.14 41.692C162.356 42.028 161.404 42.196 160.284 42.196C159.164 42.196 158.184 42.0093 157.344 41.636C156.504 41.244 155.851 40.712 155.384 40.04C154.936 39.3493 154.712 38.5747 154.712 37.716C154.712 36.372 155.207 35.2987 156.196 34.496C157.204 33.6747 158.782 33.264 160.928 33.264H164.792V33.04C164.792 31.9947 164.475 31.192 163.84 30.632C163.224 30.072 162.3 29.792 161.068 29.792C160.228 29.792 159.398 29.9227 158.576 30.184C157.774 30.4453 157.092 30.8093 156.532 31.276L155.16 28.728C155.944 28.1307 156.887 27.6733 157.988 27.356C159.09 27.0387 160.256 26.88 161.488 26.88ZM161.012 39.648C161.89 39.648 162.664 39.452 163.336 39.06C164.027 38.6493 164.512 38.0707 164.792 37.324V35.588H161.18C159.164 35.588 158.156 36.2507 158.156 37.576C158.156 38.2107 158.408 38.7147 158.912 39.088C159.416 39.4613 160.116 39.648 161.012 39.648ZM176.116 29.232C177.124 27.664 178.898 26.88 181.436 26.88V30.212C181.138 30.156 180.867 30.128 180.624 30.128C179.262 30.128 178.198 30.5293 177.432 31.332C176.667 32.116 176.284 33.2547 176.284 34.748V42H172.784V27.048H176.116V29.232ZM198.325 34.608C198.325 34.8507 198.306 35.196 198.269 35.644H186.537C186.742 36.7453 187.274 37.6227 188.133 38.276C189.01 38.9107 190.093 39.228 191.381 39.228C193.023 39.228 194.377 38.6867 195.441 37.604L197.317 39.76C196.645 40.5627 195.795 41.1693 194.769 41.58C193.742 41.9907 192.585 42.196 191.297 42.196C189.654 42.196 188.207 41.8693 186.957 41.216C185.706 40.5627 184.735 39.6573 184.045 38.5C183.373 37.324 183.037 35.9987 183.037 34.524C183.037 33.068 183.363 31.7613 184.017 30.604C184.689 29.428 185.613 28.5133 186.789 27.86C187.965 27.2067 189.29 26.88 190.765 26.88C192.221 26.88 193.518 27.2067 194.657 27.86C195.814 28.4947 196.71 29.4 197.345 30.576C197.998 31.7333 198.325 33.0773 198.325 34.608ZM190.765 29.68C189.645 29.68 188.693 30.016 187.909 30.688C187.143 31.3413 186.677 32.2187 186.509 33.32H194.993C194.843 32.2373 194.386 31.36 193.621 30.688C192.855 30.016 191.903 29.68 190.765 29.68Z" fill="#333333"/>
<g clip-path="url(#clip0_1_101)">
<path d="M42.7978 33.9189C39.918 29.4263 35.0132 26.7437 29.6772 26.7437C24.3413 26.7437 19.4365 29.4263 16.5571 33.9189L9.61767 44.7446C8.4663 46.5405 7.93505 48.6157 8.08105 50.7441C8.22705 52.873 9.0371 54.8555 10.4233 56.4785C11.8105 58.1001 13.6435 59.2085 15.7241 59.6841C17.8047 60.1597 19.9375 59.9565 21.8916 59.0977L22.0225 59.0396C26.9394 56.9214 32.5581 56.9409 37.4624 59.0977C38.7275 59.6538 40.0679 59.9351 41.4204 59.9351C42.1558 59.9351 42.8955 59.8516 43.6284 59.6846C45.709 59.2095 47.542 58.1011 48.9297 56.479C50.3164 54.8574 51.1269 52.8745 51.2734 50.7451C51.4199 48.6157 50.8887 46.541 49.7373 44.7441L42.7978 33.9189Z" fill="#726DA8"/>
<path d="M11.4869 33.9048C13.5513 33.1119 15.1197 31.4483 15.9029 29.2202C16.6485 27.1001 16.5875 24.7066 15.7305 22.48C14.8731 20.2549 13.3135 18.4385 11.3389 17.3648C9.2647 16.2373 6.98589 16.0537 4.92486 16.8482C0.778373 18.4424 -1.12446 23.5664 0.683646 28.273C2.12798 32.0191 5.49663 34.3838 8.9024 34.3838C9.77203 34.3838 10.6441 34.2295 11.4869 33.9048Z" fill="#726DA8"/>
<path d="M24.9517 25.4233C30.1353 25.4233 34.3525 20.6187 34.3525 14.7129C34.3525 8.80566 30.1353 4 24.9517 4C19.7686 4 15.5518 8.80566 15.5518 14.7129C15.5518 20.6187 19.7686 25.4233 24.9517 25.4233Z" fill="#726DA8"/>
<path d="M41.1871 28.0547H41.1876C41.985 28.3193 42.7984 28.4458 43.6085 28.4458C47.3888 28.4458 51.0729 25.6943 52.4786 21.4658C53.2882 19.0317 53.235 16.458 52.3287 14.2192C51.3805 11.8755 49.6232 10.1743 47.38 9.42871C45.1363 8.6831 42.7101 8.99414 40.5475 10.3037C38.4815 11.5547 36.8985 13.5845 36.0899 16.0186C34.3834 21.1533 36.67 26.5527 41.1871 28.0547Z" fill="#726DA8"/>
<path d="M60.9843 26.8047L60.9828 26.8033C57.4081 24.1626 52.0619 25.3072 49.0643 29.356C46.0697 33.4068 46.538 38.8526 50.1073 41.4951C51.4091 42.4595 52.9472 42.9204 54.5214 42.9204C57.265 42.9204 60.1195 41.5201 62.0277 38.9449C65.0219 34.8941 64.5541 29.4483 60.9843 26.8047Z" fill="#726DA8"/>
</g>
<defs>
<clipPath id="clip0_1_101">
<rect width="64" height="64" fill="white"/>
</clipPath>
</defs>
</svg>
