<svg width="40" height="26" viewBox="0 0 40 26" fill="none" xmlns="http://www.w3.org/2000/svg">
<path d="M20.2417 25.5C26.0283 25.5 23.965 21.8366 24.4117 20.7834C24.405 19.9966 24.3983 19.24 24.425 18.78C24.7917 18.8834 25.6566 19.3217 27.4434 21.0583C30.2017 23.8417 30.9066 25.5 33.135 25.5H37.2366C38.5366 25.5 39.2134 24.9617 39.5517 24.51C39.8783 24.0734 40.1983 23.3066 39.8483 22.1134C38.9334 19.24 33.5966 14.2783 33.265 13.755C33.315 13.6583 33.395 13.53 33.4366 13.4634H33.4334C34.4866 12.0717 38.5066 6.04832 39.0983 3.63832C39.1 3.63496 39.1017 3.63 39.1017 3.62496C39.4217 2.52496 39.1283 1.81168 38.825 1.40832C38.3683 0.805 37.6417 0.5 36.66 0.5H32.5583C31.185 0.5 30.1434 1.19168 29.6166 2.45336C28.735 4.69496 26.2583 9.30496 24.4017 10.9366C24.345 8.62496 24.3834 6.86 24.4134 5.54832C24.4734 2.99 24.6666 0.5 22.0117 0.5H15.565C13.9017 0.5 12.31 2.31664 14.0334 4.47336C15.54 6.36336 14.575 7.41664 14.9 12.66C13.6334 11.3017 11.38 7.63336 9.78664 2.94496C9.34 1.67664 8.66336 0.501664 6.75834 0.501664H2.65666C0.993336 0.501664 0 1.40832 0 2.92664C0 6.33664 7.54834 25.5 20.2417 25.5ZM6.75834 3.00168C7.12 3.00168 7.15666 3.00168 7.425 3.76336C9.05664 8.56832 12.7166 15.6783 15.39 15.6783C17.3983 15.6783 17.3983 13.62 17.3983 12.845L17.3966 6.67496C17.2866 4.63336 16.5434 3.61664 16.055 3L21.9017 3.00664C21.905 3.03504 21.8683 9.83168 21.9183 11.4783C21.9183 13.8166 23.775 15.1566 26.6734 12.2234C29.7317 8.77168 31.8466 3.61168 31.9317 3.40168C32.0566 3.10168 32.165 3 32.5583 3H36.66H36.6766C36.675 3.00496 36.675 3.01 36.6734 3.01496C36.2983 4.76496 32.5966 10.3417 31.3583 12.0734C31.3383 12.1 31.32 12.1283 31.3017 12.1566C30.7566 13.0466 30.3134 14.03 31.3766 15.4134H31.3783C31.475 15.53 31.7266 15.8034 32.0934 16.1834C33.2334 17.36 37.1434 21.3834 37.49 22.9834C37.26 23.02 37.01 22.9934 33.135 23.0017C32.31 23.0017 31.665 21.7683 29.2034 19.285C26.99 17.1317 25.5534 16.2517 24.245 16.2517C21.705 16.2517 21.89 18.3134 21.9134 20.8066C21.9217 23.51 21.905 22.655 21.9234 22.825C21.775 22.8834 21.35 23 20.2417 23C9.66664 23 2.78 6.21504 2.515 3.00664C2.60666 2.99832 3.86834 3.00336 6.75834 3.00168Z" fill="#726DA8"/>
</svg>
