<svg width="13" height="23" viewBox="0 0 13 23" fill="none" xmlns="http://www.w3.org/2000/svg">
<path d="M2.00012 -1.90735e-06C2.13173 -0.0007628 2.26219 0.0244618 2.38403 0.0742264C2.50586 0.123991 2.61668 0.197318 2.71012 0.289999L11.2901 8.88C11.8519 9.4425 12.1675 10.205 12.1675 11C12.1675 11.795 11.8519 12.5575 11.2901 13.12L2.71012 21.71C2.52182 21.8983 2.26642 22.0041 2.00012 22.0041C1.73382 22.0041 1.47842 21.8983 1.29012 21.71C1.10182 21.5217 0.996029 21.2663 0.996029 21C0.996029 20.7337 1.10182 20.4783 1.29012 20.29L9.88012 11.71C9.97385 11.617 10.0482 11.5064 10.099 11.3846C10.1498 11.2627 10.1759 11.132 10.1759 11C10.1759 10.868 10.1498 10.7373 10.099 10.6154C10.0482 10.4936 9.97385 10.383 9.88012 10.29L1.29012 1.71C1.19639 1.61703 1.122 1.50643 1.07123 1.38457C1.02046 1.26272 0.994322 1.13201 0.994322 0.999998C0.994322 0.867986 1.02046 0.737281 1.07123 0.615421C1.122 0.493562 1.19639 0.382962 1.29012 0.289999C1.38356 0.197318 1.49438 0.123991 1.61621 0.0742264C1.73805 0.0244618 1.86851 -0.0007628 2.00012 -1.90735e-06Z" fill="#726DA8"/>
</svg>
